<!DOCTYPE svg PUBLIC "-//W3C//DTD SVG 1.1//EN" "http://www.w3.org/Graphics/SVG/1.1/DTD/svg11.dtd">
<!-- Uploaded to: SVG Repo, www.svgrepo.com, Transformed by: SVG Repo Mixer Tools -->
<svg fill="#fea34d" version="1.1" id="Capa_1" xmlns="http://www.w3.org/2000/svg" xmlns:xlink="http://www.w3.org/1999/xlink" width="800px" height="800px" viewBox="0 0 127.749 127.749" xml:space="preserve" stroke="#fea34d" stroke-width="0.00127749">
<g id="SVGRepo_bgCarrier" stroke-width="0"/>
<g id="SVGRepo_tracerCarrier" stroke-linecap="round" stroke-linejoin="round"/>
<g id="SVGRepo_iconCarrier"> <g> <path d="M127.749,14.294c0-5.859-4.772-10.631-10.636-10.631c-5.864,0-10.632,4.772-10.632,10.631c0,3.834,2.057,7.172,5.104,9.041 L91.251,43.562L70.358,22.66c2.5-1.946,4.146-4.952,4.146-8.366c0-5.859-4.768-10.631-10.632-10.631 c-5.864,0-10.639,4.772-10.639,10.631c0,3.414,1.647,6.415,4.152,8.366L36.46,43.59l-20.632-20.58 c3.235-1.827,5.442-5.255,5.442-9.223c0-5.859-4.767-10.634-10.631-10.634S0,7.929,0,13.788c0,4.124,2.375,7.667,5.822,9.426 v17.811v61.295v18.226c0,2.235,1.814,4.05,4.05,4.05h108c2.236,0,4.05-1.814,4.05-4.05V102.32V41.03V23.728 C125.371,21.961,127.749,18.426,127.749,14.294z M117.113,11.773c1.407,0,2.536,1.139,2.536,2.531c0,1.399-1.129,2.533-2.536,2.533 c-1.403,0-2.531-1.134-2.531-2.533C114.591,12.912,115.731,11.773,117.113,11.773z M13.927,77.577l22.544-22.546l21.61,21.55 L36.289,98.271H13.927V77.577z M63.816,82.303l16.019,15.968h-32.06L63.816,82.303z M69.567,76.592L91.262,55.01l22.581,22.578 v20.693H91.309L69.567,76.592z M113.827,32.548v8.482v25.094L96.995,49.291L113.827,32.548z M63.877,11.773 c1.397,0,2.536,1.139,2.536,2.531c0,1.399-1.139,2.533-2.536,2.533s-2.534-1.134-2.534-2.533 C61.351,12.912,62.485,11.773,63.877,11.773z M63.877,27.633L85.525,49.28l-21.7,21.595L42.19,49.312L63.877,27.633z M13.927,66.129V41.035v-8.472l16.798,16.762L13.927,66.129z M10.639,11.259c1.402,0,2.531,1.139,2.531,2.534 c0,1.397-1.129,2.531-2.531,2.531c-1.4,0-2.534-1.134-2.534-2.531C8.105,12.398,9.239,11.259,10.639,11.259z M13.927,116.495 V106.37h23.237c0.242,0.043,0.485,0.063,0.728,0.063c0.243,0,0.496-0.021,0.736-0.063h75.209v10.125H13.927z"/> </g> </g>
</svg>